<svg width="32" height="32" viewBox="0 0 32 32" fill="none" xmlns="http://www.w3.org/2000/svg">
<g clip-path="url(#clip0_11019_116829)">
<path d="M11.3334 22C10.9797 21.9986 10.6403 21.86 10.3867 21.6133C10.1384 21.3635 9.99902 21.0256 9.99902 20.6733C9.99902 20.3211 10.1384 19.9831 10.3867 19.7333L19.7201 10.4C19.8396 10.2604 19.9867 10.1471 20.1521 10.067C20.3175 9.98699 20.4977 9.94202 20.6813 9.93492C20.865 9.92783 21.0481 9.95877 21.2192 10.0258C21.3903 10.0928 21.5457 10.1945 21.6756 10.3245C21.8056 10.4544 21.9072 10.6098 21.9743 10.7809C22.0413 10.952 22.0722 11.1351 22.0651 11.3187C22.058 11.5024 22.0131 11.6825 21.933 11.8479C21.853 12.0134 21.7397 12.1605 21.6001 12.28L12.2667 21.6133C12.1444 21.7363 11.999 21.8337 11.8388 21.9001C11.6786 21.9665 11.5068 22.0004 11.3334 22V22Z" fill="#D93434"/>
<path d="M20.6665 22C20.3128 21.9986 19.9734 21.86 19.7199 21.6133L10.3865 12.28C10.1681 12.0249 10.054 11.6968 10.0669 11.3612C10.0799 11.0257 10.219 10.7074 10.4564 10.4699C10.6939 10.2324 11.0122 10.0933 11.3478 10.0804C11.6834 10.0674 12.0115 10.1816 12.2665 10.4L21.5999 19.7333C21.8482 19.9831 21.9876 20.3211 21.9876 20.6733C21.9876 21.0256 21.8482 21.3635 21.5999 21.6133C21.4776 21.7362 21.3321 21.8337 21.1719 21.9001C21.0117 21.9665 20.8399 22.0004 20.6665 22V22Z" fill="#D93434"/>
<path d="M15.9998 29.3333C13.3628 29.3333 10.7849 28.5513 8.59224 27.0863C6.39958 25.6212 4.69062 23.5388 3.68145 21.1024C2.67228 18.6661 2.40824 15.9852 2.92271 13.3988C3.43718 10.8124 4.70705 8.43661 6.57175 6.57191C8.43645 4.70721 10.8122 3.43733 13.3986 2.92286C15.9851 2.40839 18.6659 2.67243 21.1023 3.6816C23.5386 4.69077 25.621 6.39974 27.0861 8.59239C28.5512 10.785 29.3332 13.3629 29.3332 16C29.3275 19.5345 27.921 22.9226 25.4217 25.4219C22.9224 27.9211 19.5343 29.3277 15.9998 29.3333V29.3333ZM15.9998 5.33333C13.8902 5.33333 11.8279 5.95892 10.0738 7.13099C8.31964 8.30306 6.95246 9.96896 6.14513 11.918C5.33779 13.8671 5.12656 16.0118 5.53813 18.081C5.94971 20.1501 6.96561 22.0507 8.45737 23.5425C9.94913 25.0342 11.8497 26.0501 13.9189 26.4617C15.988 26.8733 18.1327 26.662 20.0818 25.8547C22.0309 25.0474 23.6968 23.6802 24.8689 21.9261C26.0409 20.172 26.6665 18.1097 26.6665 16C26.6626 13.1722 25.5376 10.4614 23.538 8.46181C21.5385 6.46226 18.8276 5.33721 15.9998 5.33333V5.33333Z" fill="#D93434"/>
</g>
<defs>
<clipPath id="clip0_11019_116829">
<rect width="32" height="32" fill="white"/>
</clipPath>
</defs>
</svg>
