<svg width="20" height="20" viewBox="0 0 20 20" fill="none" xmlns="http://www.w3.org/2000/svg">
<path d="M10.8167 16.4173C10.6172 16.4188 10.4201 16.3731 10.2417 16.284L8.60834 15.4673C8.3938 15.362 8.21344 15.1981 8.0881 14.9946C7.96276 14.7911 7.89755 14.5563 7.9 14.3173V11.109C7.90018 10.8768 7.81743 10.6522 7.66667 10.4757L3.64167 5.70065C3.48063 5.51598 3.37677 5.28846 3.34273 5.0458C3.3087 4.80315 3.34597 4.55583 3.45 4.33399C3.55386 4.10988 3.71969 3.92017 3.9279 3.78727C4.1361 3.65437 4.378 3.58383 4.625 3.58399H15.3833C15.6287 3.58361 15.8691 3.65347 16.0761 3.78532C16.2831 3.91717 16.448 4.1055 16.5514 4.32807C16.6548 4.55064 16.6924 4.79814 16.6596 5.04136C16.6269 5.28458 16.5252 5.51335 16.3667 5.70065L12.3417 10.459C12.1906 10.6419 12.108 10.8718 12.1083 11.109V15.134C12.1101 15.353 12.055 15.5688 11.9484 15.7602C11.8418 15.9515 11.6872 16.1119 11.5 16.2256C11.2931 16.3486 11.0573 16.4147 10.8167 16.4173ZM9.56667 14.0757L10.4417 14.509V11.1007C10.4417 10.4688 10.6662 9.85746 11.075 9.37565L14.5667 5.25065H5.44167L8.94167 9.38399C9.34379 9.86257 9.565 10.4672 9.56667 11.0923V14.0757Z" fill="#BDBDBD" style="mix-blend-mode:overlay"/>
</svg>
