<svg width="24" height="24" viewBox="0 0 24 24" fill="none" xmlns="http://www.w3.org/2000/svg">
<g clip-path="url(#clip0_2285_36359)">
<path d="M14.26 9.71999C13.9965 9.72 13.7436 9.61602 13.5564 9.43064C13.3691 9.24526 13.2626 8.99347 13.26 8.72999C13.2573 8.59831 13.2809 8.46742 13.3295 8.34499C13.3781 8.22256 13.4506 8.11105 13.5428 8.01699C13.635 7.92293 13.745 7.84821 13.8664 7.79721C13.9879 7.74622 14.1183 7.71996 14.25 7.71999L16.92 7.67999L16.88 5.00999C16.8773 4.74477 16.9801 4.48937 17.1658 4.29995C17.3515 4.11054 17.6048 4.00264 17.87 3.99999C18.1352 3.99734 18.3906 4.10015 18.58 4.28581C18.7694 4.47147 18.8773 4.72477 18.88 4.98999L18.93 8.65999C18.9298 8.92355 18.8297 9.17725 18.65 9.36999C18.5594 9.46436 18.4507 9.53955 18.3304 9.59108C18.2102 9.64262 18.0808 9.66945 17.95 9.66999L14.28 9.71999H14.26Z" fill="#2B9570" style="mix-blend-mode:overlay"/>
<path d="M12.5601 20C10.6186 19.9417 8.77543 19.1325 7.41857 17.7426C6.0617 16.3528 5.29695 14.4907 5.28529 12.5484C5.27363 10.6061 6.01596 8.73497 7.35604 7.32893C8.69612 5.92289 10.5294 5.09159 12.4701 5.00998C13.456 4.98927 14.4359 5.16717 15.3516 5.5331C16.2673 5.89904 17.1 6.44551 17.8001 7.13998C17.967 7.32889 18.0564 7.57388 18.0504 7.8259C18.0444 8.07791 17.9435 8.31837 17.7678 8.49914C17.5921 8.6799 17.3546 8.78764 17.1028 8.80077C16.8511 8.81391 16.6036 8.73148 16.4101 8.56998C15.3622 7.56285 13.9634 7.00332 12.5101 7.00998C11.4242 7.02346 10.3668 7.35875 9.47163 7.97344C8.57644 8.58812 7.88374 9.45456 7.48118 10.4631C7.07862 11.4716 6.98431 12.5769 7.21018 13.6391C7.43606 14.7012 7.97196 15.6725 8.75007 16.43C9.79946 17.4347 11.1973 17.9938 12.6501 17.99C13.3713 17.9826 14.084 17.8321 14.7466 17.5472C15.4092 17.2622 16.0086 16.8485 16.5101 16.33C16.5983 16.2242 16.7074 16.1379 16.8306 16.0763C16.9537 16.0146 17.0883 15.9791 17.2258 15.972C17.3633 15.9648 17.5009 15.9861 17.6298 16.0346C17.7587 16.083 17.8762 16.1576 17.9749 16.2535C18.0737 16.3495 18.1515 16.4649 18.2036 16.5924C18.2557 16.7198 18.2809 16.8567 18.2776 16.9944C18.2744 17.132 18.2427 17.2676 18.1846 17.3924C18.1265 17.5173 18.0433 17.6288 17.9401 17.72C17.2548 18.4266 16.4362 18.9901 15.5315 19.3781C14.6269 19.766 13.6543 19.9706 12.6701 19.98C12.6356 19.9954 12.5978 20.0023 12.5601 20Z" fill="#2B9570" style="mix-blend-mode:overlay"/>
</g>
<defs>
<clipPath id="clip0_2285_36359">
<rect width="24" height="24" fill="white"/>
</clipPath>
</defs>
</svg>
